<?xml version="1.0" encoding="utf-8"?>
<svg viewBox="111.1693 303.1863 162.366 159.5603" width="162.366" height="159.56" xmlns="http://www.w3.org/2000/svg">
  <g id="g1" transform="matrix(1, 0, 0, 1, 65.52994537353516, 268.914306640625)">
    <g id="group-R5">
      <path id="path2"
        d="m 1537.02,588.57 c 1.06,-2.039 -0.56,-3.269 -1.39,-4.609 -59.66,-96.359 -138.55,-172.031 -240.01,-223.629 -59.62,-30.32 -122.16,-51.461 -188.42,-61.141 -28.58,-4.179 -57.36,-6.211 -86.23,-6.5 -94.142,-0.941 -183.966,18.25 -269.122,58.559 -58.985,27.93 -111.528,65.191 -158.672,110.23 -50.059,47.821 -91.5,102.071 -123,163.801 -26.531,51.989 -44.797,106.821 -56.09,164.004 -8.84,44.746 -11.731,89.977 -10.031,135.492 3.226,86.583 23.886,168.893 61.539,246.903 30.949,64.14 72.035,121.04 123.422,170.32 71.007,68.1 152.562,118.41 247.89,145.07 3.114,0.88 6.278,1.56 9.43,2.29 l 0.93,-0.3 c 0.644,-1.58 -0.743,-1.67 -1.567,-1.97 -54.984,-20.73 -104.695,-50.88 -153.324,-83.48 -88.809,-59.52 -153.469,-139.62 -202.539,-233.32 -29.527,-56.38 -48.699,-116.26 -58,-179.224 -6.715,-45.472 -7.375,-91.082 -2.559,-136.804 6.809,-64.672 21.743,-127.352 46.442,-187.543 17.344,-42.258 41.851,-80.379 69.082,-116.899 9.703,-13.011 19.304,-26.14 30.105,-38.172 18.473,-20.57 37.969,-40.207 60.262,-56.82 9.445,-7.039 18.637,-14.406 28.039,-21.496 52.707,-39.742 112.645,-64.863 174.461,-86.172 42.586,-14.68 86.41,-23.851 131.047,-29.469 33.695,-4.25 67.425,-3.921 101.175,-1 68.03,5.868 132.71,24.118 194.37,53.207 20.98,9.903 41.48,20.743 61.75,32.032 49.26,27.429 92.99,62.101 133.48,101.09 26.49,25.511 50.76,53 73.58,81.789 1.12,1.402 1.87,3.269 3.95,3.761"
        style="fill-opacity: 1; fill-rule: nonzero; stroke: none; fill: rgb(255, 255, 255); paint-order: fill;"
        transform="matrix(0.13333333,0,0,-0.13333333,0,232.85333)" />
      <path id="path3"
        d="m 933.723,1024.29 c 7.644,-52.349 15.683,-104.829 27.531,-156.423 6.137,-26.734 13.414,-53.242 24.457,-78.402 1.281,-2.922 18.359,-26.883 18.959,-25.848 17.83,30.785 36.91,60.758 55.53,91.059 25.15,40.937 48.15,83.121 70.53,125.625 1.92,3.648 -6.36,14.148 -8.23,17.019 -0.75,1.145 -11.8,15.31 -12.3,14.36 -22.38,-42.5 -45.38,-84.684 -70.54,-125.625 -18.61,-30.297 -37.69,-60.274 -55.523,-91.055 6.32,-8.617 12.64,-17.23 18.953,-25.848 -9.524,21.703 -16.531,49.305 -22.035,73.911 -11.207,50.082 -19.043,100.917 -26.457,151.675 -1.032,7.052 -7.196,14.582 -11.211,20.222 -1.164,1.64 -9.965,11.4 -9.664,9.33"
        style="fill-opacity: 1; fill-rule: nonzero; stroke: none; fill: rgb(255, 255, 255); paint-order: fill;"
        transform="matrix(0.13333333,0,0,-0.13333333,0,232.85333)" />
      <path id="path4"
        d="m 1046.4,617.91 c -24.9,3.012 -45.78,21.27 -60.724,40.231 -21.094,26.769 -35.196,59.058 -46.848,90.843 -30.18,82.352 -45.449,170.164 -58.332,256.626 -7.293,48.96 -13.355,98.08 -19.133,147.23 -1.347,11.47 -32.605,-4.64 -35.437,-10.23 C 767.961,1028.16 711.426,912.766 647.656,801.387 596.086,711.309 539.371,622.23 467.285,546.969 c -35.359,-36.91 -74.812,-69.891 -118.594,-96.367 -4.976,-3.012 -9.832,-8.243 -3.078,-11.661 6.617,-3.351 19.602,2.598 25.098,5.918 83.293,50.391 150.785,122.121 207.875,200.223 68.664,93.93 124.383,196.902 178.019,299.914 35.555,68.274 69.985,137.114 104.762,205.784 -11.812,-3.4 -23.625,-6.82 -35.437,-10.22 10.777,-91.7 22.355,-183.533 41.574,-273.904 9.035,-42.488 19.707,-84.804 34.371,-125.734 11.941,-33.34 26.504,-66.692 48.25,-94.91 19.016,-24.672 43.086,-42.75 74.605,-46.551 7.97,-0.973 19.26,3.219 25.05,8.68 5.43,5.121 3.84,8.898 -3.38,9.769"
        style="fill-opacity: 1; fill-rule: nonzero; stroke: none; fill: rgb(255, 255, 255); paint-order: fill;"
        transform="matrix(0.13333333,0,0,-0.13333333,0,232.85333)" />
      <path id="path5"
        d="m 522.367,1035 c 40.207,-48.348 89.613,-86.797 147.184,-112.301 57.156,-25.32 118.554,-38.676 180.023,-48.582 73.781,-11.89 146.953,-17.941 221.486,-9.207 54.95,6.445 109.32,18.942 161.38,37.719 34.85,12.57 70.77,26.976 89.99,61.043 31.45,55.738 -59.89,57.688 -92.31,46.958 -53.56,-17.716 -89.4,-79.939 -68.59,-134.165 16.19,-42.18 60.51,-59.246 102.38,-64.164 48.73,-5.727 98.46,4.48 144.53,19.988 45.24,15.231 89.88,35.871 129.03,63.375 7.5,5.266 14.75,10.863 21.63,16.906 4.68,4.11 -9.54,8.399 -11.55,8.993 -5.16,1.515 -18.43,5.21 -23.35,0.886 -28.64,-25.152 -63.26,-43.84 -97.84,-59.437 -40.42,-18.239 -84.04,-32.895 -128.27,-37.922 -31.46,-3.574 -63.23,-3.699 -85.57,21.664 -33.98,38.582 -22.26,95.809 12.29,129.91 8.08,7.973 17.6,14.629 27.98,19.258 6.17,2.754 12.72,4.738 19.33,6.138 4.26,0.91 8.58,1.55 12.93,1.81 1.84,0.18 3.69,0.24 5.54,0.15 1.89,-0.15 1.3,0.03 -1.79,0.53 -5.21,9.34 -2.11,-0.42 -1.79,0.45 l 2.86,-3.12 c 1.34,-3.251 2.46,-5.532 2.56,-9.177 0.2,-7.586 -3.13,-15.199 -6.77,-21.66 -16.67,-29.547 -47.58,-43.297 -77.84,-54.559 -104.02,-38.711 -215.906,-52.16 -325.863,-36.437 -59.043,8.441 -118.711,18.293 -174.383,40.473 -58.707,23.382 -108.89,61.683 -149.191,110.14 -4.77,5.73 -14.906,7.38 -21.887,8.18 -1.48,0.17 -17.875,0.66 -14.129,-3.84"
        style="fill-opacity: 1; fill-rule: nonzero; stroke: none; fill: rgb(255, 255, 255); paint-order: fill;"
        transform="matrix(0.13333333,0,0,-0.13333333,0,232.85333)" />
      <path id="path6"
        d="m 993.75,808.172 c -1.035,-1.813 -2.07,-3.629 -3.113,-5.438 -4.09,13.793 -7.543,27.93 -10.617,41.657 -11.211,50.097 -19.051,100.953 -26.465,151.726 -0.934,6.383 -6.383,13.163 -9.985,18.313 -1.047,1.49 -8.925,10.3 -8.656,8.46 7.641,-52.331 15.68,-104.792 27.52,-156.374 6.097,-26.575 13.285,-52.989 24.265,-78.004 1.156,-2.633 16.411,-24.328 16.931,-23.422 2.65,4.578 5.27,9.172 7.9,13.765 -3.24,4.758 -5.46,10.18 -6.73,15.852 -4.7,3.668 -8.362,8.297 -11.05,13.465"
        style="fill-opacity: 1; fill-rule: nonzero; stroke: none; fill: rgb(255, 255, 255); paint-order: fill;"
        transform="matrix(0.13333333,0,0,-0.13333333,0,232.85333)" />
    </g>
  </g>
</svg>